<svg height="496pt" viewBox="-32 0 496 496" width="496pt" xmlns="http://www.w3.org/2000/svg"><g fill="#f0bc5e"><path d="m360 496h-288c-30.871094 0-56-25.128906-56-56v-40h400v40c0 30.871094-25.128906 56-56 56zm0 0"/><path d="m408 136h-16v120h16c13.230469 0 24-10.769531 24-24v-72c0-13.230469-10.769531-24-24-24zm0 0"/><path d="m24 136c-13.230469 0-24 10.769531-24 24v72c0 13.230469 10.769531 24 24 24h16v-120zm0 0"/><path d="m344 320c-13.230469 0-24-10.769531-24-24s10.769531-24 24-24 24 10.769531 24 24-10.769531 24-24 24zm0 0"/><path d="m88 320c-13.230469 0-24-10.769531-24-24s10.769531-24 24-24 24 10.769531 24 24-10.769531 24-24 24zm0 0"/></g><path d="m328 432h-224c-13.230469 0-24 10.769531-24 24v40h16v-40c0-4.40625 3.59375-8 8-8h8v48h16v-48h16v48h16v-48h16v48h16v-48h16v48h16v-48h16v48h16v-48h16v48h16v-48h16v48h16v-48h8c4.40625 0 8 3.59375 8 8v40h16v-40c0-13.230469-10.769531-24-24-24zm0 0"/><path d="m328 112h-224c-22.054688 0-40 17.945312-40 40v92.945312l152 76 152-76v-92.945312c0-22.054688-17.945312-40-40-40zm24 40v80h-112v-104h88c13.230469 0 24 10.769531 24 24zm-144-24h16v104h-16zm-104 0h88v104h-112v-80c0-13.230469 10.769531-24 24-24zm1.886719 120h220.21875l-110.105469 55.054688zm0 0"/><path d="m398.550781 115.414062c-1.535156-2.191406-38.527343-54-116.480469-74.917968l-4.148437 15.457031c63.925781 17.160156 98.765625 57.503906 106.070313 66.742187v213.304688h-335.992188v-213.320312c7.257812-9.238282 41.878906-49.503907 106.070312-66.734376l-4.148437-15.457031c-77.953125 20.925781-114.945313 72.726563-116.480469 74.925781l-1.441406 2.066407v282.519531h16v-48h336v48h16v-282.519531zm0 0"/><path d="m64 368h80v16h-80zm0 0"/><path d="m288 368h80v16h-80zm0 0"/><path d="m272 96h-112c-8.824219 0-16-7.175781-16-16v-48c0-8.824219 7.175781-16 16-16h112c8.824219 0 16 7.175781 16 16v48c0 8.824219-7.175781 16-16 16zm0 0" fill="#f0bc5e"/><path d="m176 48h16v16h-16zm0 0"/><path d="m240 48h16v16h-16zm0 0"/><path d="m232 0h16v16h-16zm0 0"/><path d="m184 0h16v16h-16zm0 0"/></svg>